<svg width="157" height="112" viewBox="0 0 157 112" fill="none" xmlns="http://www.w3.org/2000/svg">
<g clip-path="url(#clip0_754_212578)">
<path d="M147.2 0.206055H9.43217C4.52333 0.206055 0.543945 4.18544 0.543945 9.09428V102.421C0.543945 107.329 4.52333 111.309 9.43217 111.309H147.2C152.108 111.309 156.088 107.329 156.088 102.421V9.09428C156.088 4.18544 152.108 0.206055 147.2 0.206055Z" fill="#F3F4F6"/>
<path fill-rule="evenodd" clip-rule="evenodd" d="M79.6384 34.7774C79.2356 34.5473 78.7798 34.4263 78.3159 34.4263C77.852 34.4263 77.3961 34.5473 76.9933 34.7774L58.328 45.4432C57.8179 45.7351 57.4184 46.1873 57.1918 46.7297C56.9652 47.272 56.9241 47.874 57.0749 48.442C57.2258 49.0101 57.5601 49.5124 58.0259 49.8709C58.4917 50.2294 59.0628 50.4239 59.6506 50.4242V69.0895C58.9434 69.0895 58.2652 69.3704 57.7651 69.8705C57.2651 70.3705 56.9841 71.0487 56.9841 71.7559C56.9841 72.4631 57.2651 73.1414 57.7651 73.6414C58.2652 74.1415 58.9434 74.4224 59.6506 74.4224H96.9811C97.6883 74.4224 98.3665 74.1415 98.8666 73.6414C99.3667 73.1414 99.6476 72.4631 99.6476 71.7559C99.6476 71.0487 99.3667 70.3705 98.8666 69.8705C98.3665 69.3704 97.6883 69.0895 96.9811 69.0895V50.4242C97.5689 50.4239 98.1401 50.2294 98.6059 49.8709C99.0716 49.5124 99.4059 49.0101 99.5568 48.442C99.7076 47.874 99.6665 47.272 99.4399 46.7297C99.2133 46.1873 98.8139 45.7351 98.3037 45.4432L79.6384 34.7774ZM67.65 53.0907C66.9428 53.0907 66.2646 53.3716 65.7645 53.8717C65.2645 54.3717 64.9835 55.0499 64.9835 55.7571V63.7565C64.9835 64.4637 65.2645 65.142 65.7645 65.642C66.2646 66.1421 66.9428 66.423 67.65 66.423C68.3572 66.423 69.0354 66.1421 69.5355 65.642C70.0355 65.142 70.3165 64.4637 70.3165 63.7565V55.7571C70.3165 55.0499 70.0355 54.3717 69.5355 53.8717C69.0354 53.3716 68.3572 53.0907 67.65 53.0907ZM75.6494 55.7571C75.6494 55.0499 75.9303 54.3717 76.4304 53.8717C76.9304 53.3716 77.6087 53.0907 78.3159 53.0907C79.0231 53.0907 79.7013 53.3716 80.2013 53.8717C80.7014 54.3717 80.9823 55.0499 80.9823 55.7571V63.7565C80.9823 64.4637 80.7014 65.142 80.2013 65.642C79.7013 66.1421 79.0231 66.423 78.3159 66.423C77.6087 66.423 76.9304 66.1421 76.4304 65.642C75.9303 65.142 75.6494 64.4637 75.6494 63.7565V55.7571ZM88.9817 53.0907C88.2745 53.0907 87.5963 53.3716 87.0963 53.8717C86.5962 54.3717 86.3153 55.0499 86.3153 55.7571V63.7565C86.3153 64.4637 86.5962 65.142 87.0963 65.642C87.5963 66.1421 88.2745 66.423 88.9817 66.423C89.6889 66.423 90.3671 66.1421 90.8672 65.642C91.3673 65.142 91.6482 64.4637 91.6482 63.7565V55.7571C91.6482 55.0499 91.3673 54.3717 90.8672 53.8717C90.3671 53.3716 89.6889 53.0907 88.9817 53.0907Z" fill="#374151"/>
</g>
<defs>
<clipPath id="clip0_754_212578">
<rect width="155.544" height="111.103" fill="white" transform="translate(0.543945 0.206055)"/>
</clipPath>
</defs>
</svg>
