<svg role="img" viewBox="0 0 70 50" fill="none" xmlns="http://www.w3.org/2000/svg">
    <path d="M66 0H4C1.79086 0 0 1.79086 0 4V46C0 48.2091 1.79086 50 4 50H66C68.2091 50 70 48.2091 70 46V4C70 1.79086 68.2091 0 66 0Z" fill="#108EE9"/>
    <path d="M14.8762 17H15.1095C16.7463 17.0303 18.3703 17.5682 19.6828 18.5482C21.2275 19.6822 22.3428 21.3797 22.785 23.2428C23.3123 25.4023 22.9472 27.7707 21.7595 29.6537C20.3712 31.9252 17.8022 33.4197 15.1328 33.45H14.9042C12.929 33.4173 10.983 32.6182 9.56317 31.2462C7.96017 29.7342 7.03967 27.5583 7 25.3603V25.1515C7.021 22.9068 7.96833 20.6797 9.61917 19.1513C11.0273 17.8167 12.9372 17.0408 14.8762 17ZM13.776 23.5333C13.0422 23.7702 12.2383 23.9043 11.4847 23.6838C11.0833 23.58 10.7473 23.3268 10.3728 23.16C10.2725 24.5647 10.3565 25.9798 10.3262 27.388C10.3483 27.6703 10.2643 28.0005 10.4405 28.2443C11.0518 28.6982 11.8393 28.8767 12.593 28.8242C14.4445 28.6772 16.0743 27.4557 17.9632 27.5595C18.5838 27.5712 19.1228 27.8815 19.677 28.1172C19.7283 26.6285 19.6817 25.1375 19.7015 23.6477C19.691 23.426 19.7353 23.1612 19.558 22.9908C18.8393 22.3958 17.8313 22.2267 16.9342 22.4367C15.8492 22.705 14.8342 23.1845 13.776 23.5333ZM26.0633 21.0973C27.1413 21.1102 28.2205 21.0717 29.2985 21.116C31.1337 21.2385 32.7133 22.775 32.9653 24.5833C33.2698 26.3205 32.3493 28.1942 30.7603 28.9735C30.163 29.2827 29.4875 29.411 28.819 29.4098C27.8997 29.4087 26.9815 29.4098 26.0622 29.4087C26.0633 26.6378 26.0622 23.867 26.0633 21.0973ZM27.7947 22.8847C27.8087 24.462 27.8017 26.0393 27.7982 27.6167C28.5005 27.5898 29.2483 27.7217 29.9075 27.4102C30.8035 27.0135 31.367 26.0113 31.2655 25.0407C31.1978 24.0653 30.4593 23.1728 29.5015 22.9535C28.9415 22.8322 28.3628 22.9022 27.7947 22.8847ZM36.0523 24.4585C36.1083 22.656 37.7312 21.0367 39.5558 21.0985C41.3443 21.0798 42.9147 22.6642 42.9858 24.4317C43.0162 26.0895 42.9893 27.7485 42.9987 29.4063C42.4188 29.4075 41.8402 29.4087 41.2615 29.4063C41.2557 28.8113 41.2627 28.2163 41.2568 27.6225C40.0972 27.6283 38.9387 27.6225 37.7802 27.6248C37.7755 28.221 37.7895 28.8183 37.772 29.4145C37.1945 29.4005 36.6182 29.4098 36.0418 29.4075C36.0477 27.7578 36.0255 26.107 36.0523 24.4585ZM38.2247 23.4808C37.6308 24.1225 37.8035 25.0453 37.7802 25.8398C38.9387 25.841 40.0983 25.8375 41.2568 25.841C41.2358 25.0605 41.405 24.1598 40.8438 23.517C40.222 22.7003 38.8687 22.6817 38.2247 23.4808ZM46.0378 24.4772C46.0892 22.8905 47.3293 21.4182 48.9032 21.151C50.0745 20.9258 51.3298 21.3867 52.0928 22.299C52.6832 22.9488 52.9842 23.8285 52.9842 24.7012C52.9877 26.2703 52.9842 27.8383 52.9842 29.4075C52.4078 29.411 51.8303 29.3982 51.254 29.4168C51.2318 27.8442 51.2552 26.2703 51.2435 24.6977C51.2528 24.063 50.9133 23.4307 50.358 23.1157C49.7817 22.7703 49.0012 22.8217 48.4727 23.237C48.0153 23.5788 47.7598 24.1482 47.768 24.7152C47.7633 26.2797 47.768 27.843 47.7657 29.4075C47.1835 29.4052 46.6013 29.4122 46.0192 29.4028C46.0448 27.7613 46.0075 26.1187 46.0378 24.4772ZM56.5798 22.7085C57.2507 21.6632 58.4897 20.9888 59.7415 21.1078C61.1567 21.1953 62.412 22.2733 62.804 23.6208C63.0315 24.336 62.9183 25.1013 63 25.8363V29.3982C62.4073 29.4145 61.8147 29.4063 61.222 29.4063C61.2197 28.8102 61.2278 28.2128 61.2138 27.6167C60.0577 27.6342 58.9003 27.619 57.743 27.6248C57.7418 28.2187 57.743 28.8125 57.7418 29.4075C57.162 29.4075 56.5833 29.4075 56.0035 29.4075C56.0023 27.8757 56.0035 26.345 56.0023 24.8143C55.9942 24.077 56.1703 23.328 56.5798 22.7085ZM58.1782 23.4925C57.5948 24.133 57.7663 25.05 57.743 25.8398C58.9027 25.841 60.0623 25.8398 61.2208 25.8398C61.1963 25.0582 61.3702 24.1563 60.8043 23.5135C60.1767 22.6957 58.8175 22.6852 58.1782 23.4925Z" fill="white"/>
</svg>
