<svg width="156" height="112" viewBox="0 0 156 112" fill="none" xmlns="http://www.w3.org/2000/svg">
<g clip-path="url(#clip0_754_212402)">
<path d="M146.656 0.206055H8.88822C3.97939 0.206055 0 4.18544 0 9.09428V102.421C0 107.329 3.97939 111.309 8.88822 111.309H146.656C151.564 111.309 155.544 107.329 155.544 102.421V9.09428C155.544 4.18544 151.564 0.206055 146.656 0.206055Z" fill="#F3F4F6"/>
<path d="M29.5504 42.6886C30.9245 42.9723 32.3109 43.2894 33.5717 43.9249C36.1232 45.1424 38.2951 47.1156 39.7423 49.5451C40.9422 51.7901 41.7677 54.3086 41.6442 56.8808C41.679 62.1613 38.3333 67.1929 33.5943 69.4379C30.5221 70.8991 26.9484 71.0993 23.6655 70.2983C21.4449 69.6154 19.3028 68.5113 17.6848 66.815C16.1435 65.3851 14.9801 63.5634 14.2416 61.6025C13.2785 59.1902 13.1914 56.5082 13.6007 53.967C14.3496 50.1931 16.6816 46.7325 19.982 44.7262C21.5181 43.7143 23.284 43.1134 25.0796 42.753C26.5549 42.5126 28.0683 42.5403 29.5504 42.6886ZM23.1082 49.5296C21.997 49.6427 20.7831 50.0329 20.1683 51.0359C19.4334 52.0758 19.4107 53.3975 19.3341 54.6203C19.2923 55.4894 19.1425 56.3549 19.2105 57.2292C19.3289 58.6102 19.3254 60.007 19.6267 61.3671C19.8932 62.5915 20.9956 63.5408 22.2112 63.7636C24.6843 64.2096 27.2079 64.126 29.7088 64.0912C30.6477 64.0389 31.5863 63.9432 32.5146 63.795C33.9045 63.6139 35.1322 62.482 35.3604 61.0885C35.7593 59.38 35.8306 57.6177 35.7122 55.8742C35.4893 54.7561 34.6987 53.7477 33.6241 53.3384C33.1495 53.1091 32.624 53.106 32.1073 53.1073L31.7989 53.1069C28.9496 53.1102 26.1002 53.0998 23.2527 53.1138C22.9671 53.1189 22.7076 52.9831 22.4429 52.9013C22.4376 52.5111 22.4516 51.9276 22.9758 51.9172C26.1387 51.8459 29.3082 51.9887 32.4675 51.8494C32.2724 50.9437 31.7205 49.998 30.7694 49.7471C29.9108 49.5174 29.0227 49.4007 28.1396 49.3187C26.4609 49.2978 24.7645 49.2021 23.1082 49.5296ZM32.8333 57.1368C33.1206 57.3128 33.335 57.6105 33.4203 57.9363C33.2861 58.5789 33.0684 59.206 33.0388 59.8695C32.849 59.9513 32.6662 60.0452 32.4869 60.1499C32.3822 60.0888 32.1733 59.9688 32.0687 59.9077C31.9085 59.1693 31.5236 58.4378 31.6665 57.6663C31.8267 57.1944 32.3753 57.0133 32.8333 57.1368Z" fill="#01ACD7"/>
<path d="M55.2966 46.7997C56.7039 46.6255 58.1946 46.5662 59.5374 47.0921C60.4309 47.3934 61.2337 47.9178 61.9601 48.5116C61.9739 47.9056 61.9652 47.2994 61.9635 46.6935C63.3689 46.7022 64.7746 46.6882 66.18 46.7055C66.1783 51.8973 66.1783 57.0874 66.18 62.279C66.1834 63.3118 66.2078 64.3742 65.863 65.3652C65.337 67.2479 63.996 68.8623 62.2928 69.808C60.2847 70.9661 57.8602 71.1039 55.6066 70.8199C53.3008 70.515 51.1743 69.3691 49.4953 67.7808C50.3557 66.762 51.4058 65.9225 52.3393 64.9717C53.9434 66.4485 56.225 67.1853 58.3828 66.7898C59.3808 66.6367 60.3683 66.2169 61.0213 65.4192C62.0366 64.409 61.9584 62.8747 61.9304 61.5528C61.4446 61.8332 61.0404 62.2285 60.5494 62.5003C58.6039 63.6411 56.1728 63.62 54.0654 62.9827C51.0925 62.0301 48.75 59.2957 48.386 56.1817C48.2781 54.9642 48.2692 53.7052 48.6785 52.5382C49.5806 49.5933 52.2524 47.2699 55.2966 46.7997ZM56.7179 50.6259C55.8139 50.7601 54.8873 50.9969 54.1889 51.6169C52.0329 53.2646 52.0764 56.9723 54.2429 58.5973C55.6886 59.7485 57.7313 59.7067 59.3877 59.0832C60.7584 58.5608 61.9548 57.2058 61.8033 55.6697C61.7597 54.7049 61.9635 53.6685 61.462 52.7873C60.5407 51.1763 58.5168 50.3525 56.7179 50.6259ZM91.5639 48.522C92.8614 47.2228 94.739 46.6846 96.5398 46.6968C98.8927 46.6133 101.275 47.599 102.827 49.3824C105.776 52.587 105.6 58.0591 102.538 61.1295C99.7251 63.9806 94.7459 64.254 91.6179 61.7688C91.6215 64.4422 91.6492 67.1155 91.6057 69.7871C90.1445 69.7733 88.6799 69.8289 87.2205 69.7349C87.2187 62.213 87.222 54.6909 87.2187 47.1688C88.6364 47.1461 90.054 47.1515 91.4717 47.1688C91.5066 47.6181 91.5326 48.0692 91.5639 48.522ZM95.0419 50.6921C93.6818 50.9621 92.2814 51.7842 91.8234 53.1617C91.4908 53.9558 91.6701 54.832 91.6232 55.6679C91.5588 56.6396 91.9437 57.6569 92.6785 58.3064C94.4046 59.9872 97.4768 60.0185 99.2131 58.3377C100.944 56.591 100.93 53.3848 99.0947 51.7162C98.0114 50.7618 96.444 50.4083 95.0419 50.6921ZM74.5014 46.911C76.9761 46.4131 79.6844 46.7126 81.8389 48.0901C83.4776 49.0793 84.7246 50.6834 85.2819 52.5139C86.0465 54.9191 85.7035 57.6707 84.2718 59.7643C82.849 61.8732 80.4194 63.1656 77.9114 63.4076C76.3666 63.5122 74.7696 63.4598 73.3084 62.8974C70.8875 62.0841 68.8567 60.0865 68.1428 57.6184C67.3764 55.3057 67.7317 52.6584 69.0449 50.6103C70.2606 48.6945 72.2982 47.3865 74.5014 46.911ZM75.5376 50.7147C74.9212 50.8907 74.3448 51.1972 73.8397 51.5891C72.0909 52.9666 71.6643 55.6906 72.9095 57.5349C74.3325 59.8809 78.0038 60.3442 79.9299 58.3795C80.8723 57.514 81.3198 56.2217 81.1945 54.9555C81.3007 52.1482 78.1867 49.8857 75.5376 50.7147ZM108.585 48.3705C110.687 46.8224 113.432 46.4686 115.966 46.8013C117.732 47.0906 119.546 47.8481 120.616 49.3493C121.274 50.335 121.711 51.5002 121.696 52.6968C121.692 56.1381 121.699 59.5796 121.692 63.0227C120.363 63.0018 119.036 63.014 117.711 63.0158C117.7 62.4272 117.711 61.8401 117.7 61.2533C116.779 62.4428 115.325 63.068 113.881 63.338C111.795 63.6149 109.452 63.4511 107.789 62.0212C105.774 60.3562 105.782 56.7703 107.961 55.2464C109.844 53.9681 112.172 53.7085 114.37 53.3934C115.274 53.2019 116.274 53.0641 116.984 52.4164C117.322 51.6118 116.735 50.767 115.964 50.5163C115.081 50.2481 114.137 50.201 113.23 50.3577C111.827 50.5841 110.633 51.6796 110.29 53.0572C108.888 52.8621 107.52 52.4791 106.127 52.2404C106.333 50.6625 107.371 49.3355 108.585 48.3705ZM111.141 57.3694C110.697 57.6378 110.253 58.1757 110.483 58.721C110.636 59.4959 111.53 59.7312 112.209 59.7712C113.844 59.8756 115.696 59.6527 116.911 58.4406C117.726 57.6116 117.439 56.3505 117.481 55.304C115.638 56.6972 113.116 56.281 111.141 57.3694ZM122.041 47.1583C123.679 47.1583 125.318 47.1479 126.957 47.1637C127.218 47.9718 127.662 48.7016 128.007 49.4748C129.232 52.176 130.513 54.8529 131.76 57.5453C133.366 54.0952 134.963 50.6381 136.541 47.1741C138.185 47.1461 139.829 47.1392 141.475 47.181C137.812 54.7049 134.146 62.225 130.477 69.7453C128.855 69.8289 127.23 69.7733 125.609 69.7802C126.772 67.1904 128.159 64.7035 129.334 62.1188C126.933 57.1169 124.435 52.162 122.041 47.1583Z" fill="#010101"/>
</g>
<defs>
<clipPath id="clip0_754_212402">
<rect width="155.544" height="111.103" fill="white" transform="translate(0 0.206055)"/>
</clipPath>
</defs>
</svg>
