<svg role="img" viewBox="0 0 70 50" fill="none" xmlns="http://www.w3.org/2000/svg">
    <path d="M66 0H4C1.79086 0 0 1.79086 0 4V46C0 48.2091 1.79086 50 4 50H66C68.2091 50 70 48.2091 70 46V4C70 1.79086 68.2091 0 66 0Z" fill="#E82529"/>
    <path d="M34.5892 24.8473C34.679 24.9299 34.6728 25.0587 34.6554 25.169C34.4599 26.6526 34.2715 28.1371 34.0627 29.6187C33.8969 30.7866 33.8004 31.9689 33.5115 33.1164C33.3253 33.8543 33.0687 34.5881 32.6356 35.2203C32.1527 35.9023 31.4142 36.3508 30.6573 36.6716C30.1842 36.8614 29.6967 37.0282 29.1933 37.1144C29.0116 37.1329 28.9495 36.9271 28.8982 36.7937C28.7088 36.2164 28.52 35.6391 28.3353 35.0602C28.2742 34.9335 28.3532 34.7954 28.4805 34.7559C28.8371 34.6066 29.2035 34.4757 29.5371 34.2766C29.9214 34.0637 30.2535 33.7486 30.4562 33.3565C30.7235 32.8572 30.7779 32.284 30.8672 31.7344C31.1961 29.5371 31.4861 27.334 31.7914 25.1331C31.8042 24.9679 31.9207 24.8124 32.0865 24.7764C32.7972 24.7487 33.511 24.7744 34.2233 24.7636C34.347 24.7677 34.4968 24.7436 34.5892 24.8473ZM47.1653 31.6693C47.6133 31.9043 47.9042 32.4062 47.876 32.9126C47.8375 33.6424 47.3084 34.2977 46.6306 34.546C46.1472 34.7313 45.5709 34.7072 45.1347 34.4152C44.7857 34.1899 44.5461 33.7927 44.544 33.373C44.5548 32.5375 45.1696 31.7349 45.9953 31.5553C46.3827 31.465 46.8107 31.4727 47.1653 31.6693ZM43.3083 24.9858C43.5198 25.0515 43.7527 25.0695 43.9431 25.1906C44.0653 25.2727 44.0617 25.4348 44.0437 25.5652C43.7681 27.7379 43.4941 29.9112 43.2185 32.0839C43.177 32.3179 43.1934 32.5719 43.0769 32.7859C42.9861 32.9547 42.8131 33.0538 42.6387 33.1164C41.3404 33.6336 39.9194 33.8338 38.5277 33.7029C37.6794 33.6285 36.7722 33.454 36.1287 32.8531C35.518 32.2866 35.303 31.427 35.2645 30.6224C35.2296 29.7028 35.3286 28.774 35.5755 27.8872C35.8387 26.9512 36.3447 26.0511 37.1422 25.4713C37.9535 24.8637 38.9849 24.6492 39.9794 24.6122C41.1002 24.5527 42.2266 24.6907 43.3083 24.9858ZM26.8286 21.8555C27.2756 21.8607 27.6794 22.2173 27.7451 22.6581C28.3291 26.144 28.9156 29.6299 29.4976 33.1159C29.5499 33.3062 29.3965 33.5187 29.1969 33.5166C28.3912 33.5228 27.585 33.5187 26.7794 33.5187C26.5674 33.5295 26.3698 33.3565 26.356 33.1441C26.2918 32.5442 26.2421 31.9428 26.1764 31.3429C26.1754 31.2582 26.0968 31.1956 26.0142 31.2054C25.0561 31.2002 24.0976 31.2054 23.1395 31.2028C23.0538 31.1982 22.9465 31.2079 22.9199 31.3064C22.6433 31.9402 22.3795 32.5796 22.1029 33.2134C22.0377 33.3699 21.8725 33.4699 21.7042 33.4643C20.898 33.471 20.0918 33.4766 19.2856 33.4782C19.104 33.5053 18.9603 33.2919 19.0578 33.1343C20.6245 29.6582 22.1948 26.183 23.763 22.7074C23.9226 22.3287 24.251 22.0254 24.6472 21.912C24.8889 21.8391 25.1434 21.854 25.3923 21.8535C25.8711 21.8555 26.3503 21.8494 26.8286 21.8555ZM38.9536 27.5834C38.6575 27.9232 38.518 28.3635 38.4266 28.7966C38.3142 29.32 38.2229 29.8768 38.3784 30.4012C38.482 30.7579 38.7715 31.074 39.1481 31.1356C39.5925 31.2161 40.0482 31.1258 40.4767 31.0032C40.6399 29.7336 40.8026 28.464 40.9657 27.1945C40.7056 27.1355 40.4433 27.0831 40.178 27.0595C39.7152 27.0154 39.2492 27.2304 38.9536 27.5834ZM48.7956 23.2708C48.9839 23.2908 49.0147 23.5182 48.9742 23.667C48.521 25.9095 48.0679 28.1525 47.6127 30.3946C47.5953 30.5413 47.4573 30.6547 47.31 30.6414C46.7604 30.6419 46.2108 30.645 45.6617 30.6404C45.4836 30.6486 45.3471 30.4654 45.3856 30.296C45.6001 28.0704 45.8121 25.8443 46.0291 23.6193C46.0322 23.4617 46.1487 23.3257 46.3001 23.2893C46.4607 23.2488 46.629 23.2657 46.7932 23.2626C47.4609 23.2693 48.129 23.2518 48.7956 23.2708ZM25.42 25.1762C24.9561 26.2985 24.5261 27.4357 24.0719 28.562C24.0509 28.6288 23.9816 28.7365 24.0775 28.7781L24.6041 28.7858L25.6581 28.7837C25.7597 28.795 25.8587 28.7068 25.8367 28.601C25.7407 27.4859 25.637 26.3708 25.5344 25.2563C25.5498 25.1901 25.4749 25.1259 25.42 25.1762ZM34.6672 21.0714C35.0895 21.3116 35.3271 21.8109 35.2917 22.2897C35.2276 23.1774 34.4937 23.9821 33.6049 24.0934C33.1985 24.1509 32.7644 24.0257 32.4698 23.7357C32.2204 23.4966 32.0849 23.1482 32.0973 22.8033C32.1501 21.9325 32.7972 21.0863 33.6799 20.9349C34.0114 20.8723 34.3726 20.8944 34.6672 21.0714ZM51.9772 11.9325C52.1676 11.9268 52.2502 12.1906 52.1075 12.3076C51.1125 13.4114 50.1149 14.5127 49.1179 15.6149C50.0308 17.5716 50.9452 19.5278 51.8561 21.486C51.9828 21.6928 51.8104 21.9879 51.5672 21.9715C50.7959 21.9746 50.0241 21.9741 49.2528 21.972C49.1035 21.9833 48.9793 21.876 48.929 21.7426C47.9771 19.6725 47.0221 17.6034 46.0697 15.5333C47.0457 14.3962 48.0197 13.2575 48.9952 12.1203C49.0942 11.9966 49.2482 11.9232 49.4073 11.9299C50.2637 11.9304 51.1207 11.9248 51.9772 11.9325ZM22.6222 8.94587C22.8814 8.94998 23.141 8.93664 23.3997 8.95152C23.5711 8.95922 23.707 9.13523 23.6737 9.30406C23.296 11.9551 22.905 14.6045 22.5273 17.2555C22.4678 17.5568 22.732 17.8595 23.0379 17.8457C24.4732 17.8508 25.9085 17.8462 27.3438 17.8477C27.4747 17.8277 27.6081 17.9432 27.5789 18.0792C27.4737 18.832 27.3592 19.5843 27.2479 20.336C27.2417 20.4684 27.1227 20.5803 26.9892 20.5726C25.363 20.5757 23.7363 20.5742 22.1101 20.5731C21.0463 20.5777 19.9563 19.9563 19.5448 18.9526C19.4114 18.6287 19.3729 18.2685 19.4221 17.9226L20.5767 9.24813C20.5844 9.1224 20.6655 9.0013 20.7887 8.96383C21.3973 8.92176 22.0116 8.95768 22.6222 8.94587ZM45.4626 8.48403C45.8557 8.48659 46.2488 8.47941 46.6418 8.48608C46.747 8.4753 46.8394 8.57948 46.8127 8.68313C46.2806 12.5508 45.7412 16.418 45.2076 20.2852C45.1952 20.3648 45.1819 20.4628 45.0967 20.4992C44.9966 20.5254 44.8925 20.5151 44.7909 20.5172C44.0201 20.5136 43.2493 20.5187 42.4791 20.5151C42.3528 20.5341 42.2456 20.4089 42.2815 20.2873C42.8142 16.418 43.353 12.5498 43.8877 8.68108C43.8964 8.61283 43.9139 8.53072 43.9857 8.50199C44.4748 8.45991 44.971 8.49583 45.4626 8.48403ZM38.1197 11.6425C38.9654 11.6477 39.8547 11.8401 40.5147 12.3984C41.1182 12.8993 41.4466 13.669 41.5133 14.4393C41.5744 14.9904 41.4609 15.538 41.3978 16.0835C41.2136 17.4705 41.0017 18.8535 40.7954 20.237C40.791 20.372 40.6814 20.4784 40.5529 20.4928L40.4875 20.492C39.7147 20.4895 38.9418 20.4967 38.169 20.489C37.9925 20.49 37.8662 20.3006 37.9119 20.1354C38.0659 19.0557 38.2172 17.975 38.3825 16.8963C38.4682 16.3 38.5908 15.7058 38.598 15.1013C38.5924 14.8324 38.5924 14.524 38.3927 14.3172C38.1741 14.0939 37.856 14.0072 37.5548 13.9697C37.1647 13.923 36.7712 13.962 36.3858 14.0252C36.082 16.1671 35.7777 18.3085 35.4744 20.4505C35.0182 20.0605 34.4193 19.809 33.8117 19.8757C33.3643 19.8906 32.9609 20.1036 32.5894 20.334C32.8732 18.385 33.1534 16.436 33.4479 14.4885L33.5714 13.7047C33.6143 13.4436 33.6627 13.1836 33.7281 12.927C33.8061 12.6335 33.9293 12.3286 34.1822 12.1424C34.5281 11.8791 34.9746 11.8165 35.3933 11.757C36.298 11.6559 37.2099 11.6487 38.1197 11.6425ZM29.6556 11.8591C30.3746 11.8647 31.0935 11.8545 31.8125 11.8637C31.9957 11.8622 32.1383 12.0526 32.0988 12.2291C31.7309 14.8668 31.3563 17.5034 30.9868 20.1405C30.9827 20.3278 30.8262 20.5023 30.6322 20.491C29.8434 20.4931 29.0547 20.4926 28.266 20.491C28.1254 20.5105 27.994 20.3761 28.0294 20.2355C28.4004 17.5465 28.7807 14.8585 29.1548 12.1701C29.1635 12.0459 29.2353 11.9227 29.3575 11.8801C29.454 11.8519 29.5561 11.8617 29.6556 11.8591ZM32.05 8.18691C32.4606 8.4363 32.6838 8.93253 32.6438 9.40567C32.5714 10.2601 31.8843 11.0309 31.036 11.1792C30.6435 11.2515 30.215 11.1643 29.9045 10.9062C29.5976 10.6598 29.4262 10.2601 29.4519 9.86803C29.5196 9.01977 30.1431 8.20025 31.0011 8.03758C31.3532 7.96522 31.7416 7.98831 32.05 8.18691ZM37.2453 38.3332C41.4404 37.956 45.6561 37.7779 49.8681 37.8595C51.5487 37.8939 53.2288 37.9683 54.9033 38.1136C55.3461 38.1572 55.7905 38.1875 56.2303 38.2593C53.1816 38.2993 50.1355 38.4635 47.096 38.7016C43.3371 38.9993 39.5879 39.4201 35.8562 39.963C31.7252 40.5654 27.6076 41.2813 23.5449 42.2486C22.5955 42.4713 21.6498 42.711 20.702 42.9419C20.2145 43.061 19.6844 42.9963 19.2435 42.7546C18.4948 42.3456 17.7487 41.9305 17 41.521C19.1609 40.9647 21.3526 40.5357 23.548 40.1405C28.0848 39.339 32.6587 38.7607 37.2453 38.3332Z" fill="#FEFEFE"/>
</svg>
