<svg role="img" viewBox="0 0 70 50" fill="none" xmlns="http://www.w3.org/2000/svg">
    <path d="M66 0H4C1.79086 0 0 1.79086 0 4V46C0 48.2091 1.79086 50 4 50H66C68.2091 50 70 48.2091 70 46V4C70 1.79086 68.2091 0 66 0Z" fill="#4C3494"/>
    <path d="M16.9807 17.0782C18.6319 16.8591 20.3589 17.1162 21.843 17.8854C23.4599 18.7031 24.7702 20.1015 25.4979 21.7594C26.1117 23.148 26.3351 24.7031 26.1545 26.2092C25.9679 27.8242 25.3032 29.3867 24.2359 30.6168C23.1166 31.9191 21.5633 32.842 19.8816 33.1921C18.1313 33.5599 16.2567 33.3787 14.6307 32.6223C12.9887 31.8628 11.6264 30.5183 10.8424 28.8885C9.98868 27.1437 9.78304 25.1003 10.2292 23.2135C10.5988 21.6241 11.4538 20.1462 12.6717 19.0568C13.8589 17.9736 15.3889 17.2832 16.9807 17.0782ZM17.4728 19.7098C16.6729 19.8126 15.8963 20.1101 15.2414 20.5831C14.3699 21.2037 13.7225 22.1143 13.3699 23.1205C12.9556 24.3016 12.9158 25.6088 13.2329 26.8181C13.5542 28.0427 14.2977 29.1706 15.3571 29.8775C16.3828 30.5801 17.6821 30.8451 18.9061 30.6523C19.9054 30.4974 20.8528 30.0183 21.5652 29.2992C22.3938 28.4913 22.9122 27.3965 23.1025 26.2618C23.3087 25.0183 23.16 23.7031 22.6129 22.5623C22.1313 21.5391 21.313 20.6682 20.2934 20.1706C19.4275 19.738 18.4305 19.5862 17.4728 19.7098ZM51.1043 17.0366C53.2794 16.8291 55.5407 17.5078 57.1851 18.9601C58.9373 20.4644 59.9471 22.7582 59.9593 25.0593C60.007 27.1339 59.2592 29.2294 57.8534 30.7649C57.0835 31.6174 56.1233 32.2979 55.0646 32.7435C52.9875 33.6131 50.5511 33.5856 48.4923 32.6737C46.6796 31.8708 45.201 30.3567 44.4275 28.5323C43.3859 26.1107 43.5474 23.1957 44.8969 20.9246C45.9006 19.2025 47.5817 17.8891 49.4985 17.3377C50.0217 17.1829 50.5609 17.0862 51.1043 17.0366ZM51.1955 19.7135C49.8155 19.8848 48.5407 20.6884 47.7677 21.8408C46.5083 23.6963 46.444 26.2753 47.5591 28.2129C48.0578 29.0758 48.81 29.793 49.7096 30.2257C50.8504 30.7783 52.2065 30.8628 53.411 30.4705C54.3699 30.1608 55.2145 29.5329 55.8161 28.7276C57.0848 27.0274 57.2733 24.6382 56.433 22.7104C56.0076 21.7441 55.2959 20.8965 54.3852 20.3561C53.4373 19.7826 52.2898 19.5648 51.1955 19.7135ZM26.8926 17.4436C29.0554 17.4429 31.2176 17.4424 33.3797 17.4436C33.3797 18.3206 33.3797 19.197 33.3797 20.0739C32.8528 20.0758 32.3259 20.0733 31.7996 20.0752C33.0438 23.0213 34.2873 25.9675 35.5315 28.9136C36.742 25.9711 37.936 23.0213 39.1386 20.0752C38.6166 20.0739 38.0946 20.0752 37.5725 20.0746C37.5713 19.1976 37.5719 18.3206 37.5725 17.4429C39.2855 17.4429 40.9991 17.4429 42.7121 17.4429C42.6998 17.9558 42.7384 18.4736 42.6931 18.9834C40.6594 23.7814 38.608 28.5727 36.5713 33.3701C36.1766 33.364 35.7745 33.4007 35.3883 33.2998C34.5786 33.1119 33.8828 32.5189 33.5517 31.7588C31.8602 27.8646 30.171 23.9687 28.4783 20.0746C27.9495 20.0746 27.4214 20.0752 26.8926 20.0739C26.8926 19.197 26.892 18.32 26.8926 17.4436Z" fill="white"/>
</svg>
