<svg width="157" height="112" viewBox="0 0 157 112" fill="none" xmlns="http://www.w3.org/2000/svg">
<g clip-path="url(#clip0_754_212390)">
<path d="M147.568 0.206055H9.80057C4.89174 0.206055 0.912354 4.18544 0.912354 9.09428V102.421C0.912354 107.329 4.89174 111.309 9.80057 111.309H147.568C152.477 111.309 156.456 107.329 156.456 102.421V9.09428C156.456 4.18544 152.477 0.206055 147.568 0.206055Z" fill="#F3F4F6"/>
<path d="M16.4666 65.4452V44.6475H23.2052C25.759 44.6475 27.4231 44.7519 28.1986 44.9597C29.3905 45.2719 30.3882 45.9505 31.1921 46.9957C31.9958 48.041 32.3976 49.3909 32.3976 51.0463C32.3976 52.3231 32.1658 53.3964 31.7025 54.2663C31.239 55.1367 30.6504 55.8195 29.9362 56.3161C29.2223 56.8128 28.4965 57.1414 27.7586 57.3018C26.7562 57.5005 25.3046 57.5998 23.4034 57.5998H20.6651V65.4457L16.4666 65.4452ZM20.6655 48.1659V54.0676H22.9642C24.6191 54.0676 25.7259 53.9592 26.284 53.7412C26.8418 53.5237 27.2795 53.1835 27.5964 52.72C27.9126 52.2564 28.0712 51.7176 28.0712 51.1023C28.0712 50.3459 27.8493 49.722 27.4046 49.23C26.96 48.7385 26.3976 48.4307 25.7165 48.3081C25.2155 48.2134 24.208 48.1659 22.6947 48.1659H20.6655Z" fill="black"/>
<path d="M52.4509 65.4452H47.8826L46.067 60.7207H37.7536L36.0371 65.4452H31.5823L39.6828 44.6475H44.1233L52.4509 65.4452ZM44.7193 57.217L41.8537 49.4993L39.0446 57.217H44.7193Z" fill="black"/>
<path d="M57.4955 65.4452V56.6919L49.8772 44.6475H54.7999L59.6947 52.8757L64.4901 44.6475H69.3277L61.681 56.7203V65.4452H57.4955Z" fill="black"/>
<path d="M71.3828 65.4452V44.6475H86.8039V48.1659H75.5823V52.7764H86.0237V56.2808H75.5823V61.9415H87.2012V65.4457L71.3828 65.4452Z" fill="#64B3DF"/>
<path d="M90.7617 65.4452V44.6475H106.183V48.1659H94.9612V52.7764H105.403V56.2808H94.9612V61.9415H106.58V65.4457L90.7617 65.4452Z" fill="#64B3DF"/>
<path d="M110.155 65.4452V44.6475H118.993C121.216 44.6475 122.831 44.8341 123.838 45.2079C124.845 45.5818 125.651 46.2462 126.257 47.2013C126.862 48.1568 127.165 49.2493 127.165 50.4784C127.165 52.0389 126.706 53.3277 125.789 54.3445C124.871 55.3611 123.5 56.0022 121.675 56.2668C122.583 56.7965 123.332 57.3783 123.924 58.0118C124.515 58.6455 125.312 59.7712 126.314 61.3882L128.854 65.4457H123.831L120.795 60.9202C119.717 59.3026 118.979 58.2835 118.582 57.8625C118.184 57.4418 117.764 57.1534 117.319 56.9972C116.875 56.8408 116.17 56.763 115.205 56.763H114.354V65.4457L110.155 65.4452ZM114.354 53.4432H117.461C119.476 53.4432 120.733 53.3581 121.235 53.1879C121.736 53.0179 122.128 52.7251 122.413 52.3084C122.696 51.8923 122.838 51.3723 122.838 50.7479C122.838 50.0479 122.652 49.4829 122.278 49.0525C121.904 48.6221 121.377 48.3503 120.696 48.2367C120.356 48.1894 119.334 48.1659 117.632 48.1659H114.355L114.354 53.4432Z" fill="#64B3DF"/>
<path d="M140.902 58.8596C140.902 60.3991 140.359 61.7125 139.273 62.8011C138.187 63.8899 136.876 64.435 135.335 64.435C133.795 64.435 132.486 63.8899 131.405 62.8011C130.329 61.7165 129.792 60.4026 129.792 58.8596C129.792 57.3313 130.335 56.0272 131.42 54.943C132.502 53.8642 133.806 53.3247 135.335 53.3247C136.876 53.3247 138.187 53.8642 139.273 54.943C140.359 56.0218 140.902 57.3286 140.902 58.8596ZM135.336 54.0804C134.018 54.0804 132.893 54.5495 131.958 55.487C131.029 56.4207 130.565 57.5462 130.565 58.8681C130.565 60.1993 131.027 61.3337 131.95 62.272C132.881 63.2093 134.007 63.6782 135.336 63.6782C136.664 63.6782 137.791 63.2093 138.721 62.272C139.651 61.3337 140.114 60.1993 140.114 58.8681C140.114 57.5462 139.651 56.4207 138.721 55.487C137.788 54.5491 136.658 54.0804 135.336 54.0804ZM135.229 55.7972C135.987 55.7972 136.543 55.8701 136.895 56.0161C137.527 56.2789 137.842 56.7936 137.842 57.5617C137.842 58.1057 137.644 58.5085 137.247 58.7652C137.037 58.9016 136.743 58.9983 136.363 59.0587C136.843 59.1345 137.191 59.3345 137.412 59.6582C137.633 59.9791 137.744 60.2929 137.744 60.6015V61.0463C137.744 61.1883 137.748 61.3397 137.758 61.5003C137.769 61.6601 137.788 61.767 137.811 61.8181L137.849 61.8934H136.843C136.836 61.8723 136.833 61.8525 136.827 61.833C136.821 61.8118 136.818 61.7903 136.812 61.7634L136.789 61.5683V61.0857C136.789 60.3828 136.597 59.9182 136.213 59.6918C135.987 59.5616 135.588 59.4947 135.017 59.4947H134.169V61.8938H133.094V55.7972H135.229ZM136.797 57.6495C136.797 57.2082 136.661 56.9078 136.391 56.7578C136.12 56.6065 135.685 56.5305 135.089 56.5305H134.169V58.7379H135.141C135.597 58.7379 135.94 58.6925 136.167 58.6016C136.587 58.4361 136.797 58.1179 136.797 57.6495Z" fill="black"/>
</g>
<defs>
<clipPath id="clip0_754_212390">
<rect width="155.544" height="111.103" fill="white" transform="translate(0.912354 0.206055)"/>
</clipPath>
</defs>
</svg>
