<svg width="156" height="112" viewBox="0 0 156 112" fill="none" xmlns="http://www.w3.org/2000/svg">
<g clip-path="url(#clip0_754_212385)">
<path d="M147.024 0.206055H9.25663C4.3478 0.206055 0.368408 4.18544 0.368408 9.09428V102.421C0.368408 107.329 4.3478 111.309 9.25663 111.309H147.024C151.933 111.309 155.912 107.329 155.912 102.421V9.09428C155.912 4.18544 151.933 0.206055 147.024 0.206055Z" fill="#F3F4F6"/>
<path fill-rule="evenodd" clip-rule="evenodd" d="M65.79 29.0933H80.9535C85.2243 29.0933 90.2895 29.2321 93.6781 32.2204C95.9415 34.2167 97.1294 37.3973 96.8548 40.8117C95.925 52.3904 88.9991 58.8757 79.7118 58.8757H72.233C70.9605 58.8757 70.1168 59.719 69.7577 62.0035L67.6707 75.2789C67.5354 76.1402 67.1621 76.6477 66.4806 76.7092H57.1395C56.1032 76.7092 55.7347 75.9162 56.0056 74.199L62.7322 31.6124C63.0015 29.9056 63.9352 29.0933 65.79 29.0933Z" fill="#1B3D92"/>
<path fill-rule="evenodd" clip-rule="evenodd" d="M75.5418 42.4253H90.6902C98.8225 42.4253 101.885 46.5419 101.412 52.6003C100.632 62.5871 94.5941 68.1094 86.5852 68.1094H82.5412C81.4438 68.1094 80.7052 68.8351 80.4061 70.8072L78.6718 82.2559C78.5591 82.9996 78.168 83.4362 77.5805 83.4895H68.0819C67.1882 83.4895 66.8702 82.8056 67.104 81.3246L72.9046 44.598C73.1368 43.1259 73.9419 42.4253 75.5418 42.4253Z" fill="#00A2D3"/>
<path fill-rule="evenodd" clip-rule="evenodd" d="M69.2522 61.3579L71.9 44.5976C72.1326 43.1259 72.9379 42.4253 74.5378 42.4253H89.6862C92.1938 42.4253 94.2197 42.8166 95.8073 43.5377C94.2852 53.8427 87.6202 59.5682 78.8926 59.5682H71.4136C70.4294 59.5682 69.6939 60.0715 69.2522 61.3579Z" fill="#1B2E7F"/>
</g>
<defs>
<clipPath id="clip0_754_212385">
<rect width="155.544" height="111.103" fill="white" transform="translate(0.368408 0.206055)"/>
</clipPath>
</defs>
</svg>
