<svg role="img" viewBox="0 0 70 50" fill="none" xmlns="http://www.w3.org/2000/svg">
    <path d="M66 0H4C1.79086 0 0 1.79086 0 4V46C0 48.2091 1.79086 50 4 50H66C68.2091 50 70 48.2091 70 46V4C70 1.79086 68.2091 0 66 0Z" fill="#F0592C"/>
    <path d="M36.7916 9.71414C37.8529 10.7449 38.255 12.2767 38.3295 13.7126C39.5297 13.7177 40.7308 13.7034 41.931 13.7177C42.2575 13.7003 42.579 13.9381 42.6208 14.2677C42.6688 14.7137 42.5923 15.1617 42.5718 15.6077C42.3616 18.4274 42.1565 21.2481 41.9514 24.0678C41.9003 24.6934 41.6728 25.3486 41.1656 25.7486C40.8349 26.0129 40.4053 26.1099 39.9889 26.0987C36.6201 26.0946 33.2514 26.0995 29.8837 26.0966C29.306 26.116 28.7213 25.8343 28.4213 25.3323C28.0202 24.7138 28.0498 23.9515 27.9957 23.2463C27.7875 20.4276 27.5865 17.6089 27.3752 14.7913C27.3609 14.5075 27.3252 14.1779 27.5344 13.9514C27.7344 13.7085 28.0753 13.7146 28.3621 13.7105C29.4622 13.7146 30.5613 13.7126 31.6604 13.7126C31.7298 12.3195 32.0625 10.8306 33.0524 9.79068C34.0147 8.7773 35.7945 8.72322 36.7916 9.71414ZM37.0804 16.3843C36.3375 15.873 35.3731 15.6975 34.4903 15.8526C33.6535 15.9945 32.9207 16.6782 32.7911 17.5273C32.7034 18.0957 32.9626 18.6733 33.3912 19.0428C33.9484 19.5571 34.6975 19.7551 35.4006 19.9816C36.0027 20.197 36.6395 20.496 36.9804 21.0665C37.2549 21.5237 37.1906 22.1482 36.8314 22.5411C36.4436 22.9708 35.8507 23.1545 35.2884 23.1932C34.4423 23.2228 33.6229 22.9054 32.933 22.4319C32.7422 22.2615 32.5911 22.5187 32.4687 22.634C32.9503 23.1912 33.6678 23.4769 34.3699 23.6382C35.2516 23.827 36.2477 23.7474 36.9916 23.2014C37.6978 22.685 37.8948 21.6635 37.5703 20.8766C37.3059 20.2786 36.7222 19.902 36.1405 19.6561C35.268 19.2714 34.1913 19.1591 33.5708 18.3559C33.134 17.8028 33.4259 16.9844 33.9719 16.6251C34.626 16.1679 35.4904 16.2659 36.1976 16.5364C36.4875 16.6292 36.7385 16.8323 37.0437 16.8741C37.2549 16.7935 37.2804 16.4914 37.0804 16.3843ZM33.4035 10.7469C32.8003 11.6082 32.6166 12.6818 32.5401 13.7095C34.177 13.7146 35.8139 13.7146 37.4498 13.7095C37.36 12.7798 37.1855 11.8338 36.7242 11.0112C36.4375 10.502 35.9844 10.0489 35.4006 9.91315C34.6413 9.71823 33.8331 10.1183 33.4035 10.7469Z" fill="white"/>
    <path d="M8.11613 33.0379C9.14205 34.0175 10.7394 33.9729 11.756 34.958C12.2198 35.3495 12.2717 36.0637 12.0083 36.5832C11.667 37.1639 10.949 37.3846 10.3127 37.4106C9.26078 37.4143 8.34803 36.8244 7.51134 36.2548C7.24419 36.4774 6.76184 36.8058 7.13844 37.1657C8.50757 38.4217 10.8618 38.943 12.396 37.6944C13.4925 36.8132 13.4461 35.0304 12.3868 34.1399C11.4518 33.1641 9.97131 33.1938 8.94169 32.3849C8.16807 31.8506 8.52612 30.5019 9.40734 30.3034C10.3034 30.0028 11.2254 30.3331 12.0306 30.7301C12.5704 31.0325 12.9174 30.077 12.4313 29.8303C11.3831 29.1346 9.93978 28.9194 8.77843 29.4518C7.45382 30.0195 7.00487 32.0547 8.11613 33.0379ZM13.9637 37.303C13.9674 37.6072 13.9637 37.9171 14.0249 38.2176C14.229 38.4773 14.7354 38.5089 14.9043 38.1972C15.2605 36.932 14.5295 35.3903 15.4664 34.2939C16.0971 33.4572 17.7186 33.524 18.0636 34.587C18.2807 35.7799 18.0228 37.0099 18.1935 38.2083C18.4681 38.5942 19.2417 38.418 19.1545 37.8967C19.1638 36.8949 19.1712 35.8931 19.1638 34.8913C19.173 33.6835 18.0043 32.6558 16.8188 32.7003C16.1454 32.6353 15.5406 32.9619 14.9803 33.2884C14.9785 32.0899 15.0248 30.8878 14.9673 29.6893C14.9803 29.3795 14.7354 29.0956 14.4071 29.1773C14.0138 29.142 13.9674 29.6003 13.9692 29.8897C13.9618 32.3608 13.9785 34.8319 13.9637 37.303ZM56.1989 33.5667C56.5773 33.96 56.6386 34.5555 56.5514 35.0731C56.364 36.2585 56.1377 37.4366 55.9243 38.6183C55.5236 38.6165 55.1229 38.6146 54.724 38.6146C54.7593 38.4532 54.8298 38.1304 54.865 37.969C54.0914 38.7463 52.802 39.1155 51.8299 38.4885C50.9135 37.8725 51.112 36.4607 51.8726 35.8003C52.8095 34.9209 54.225 34.9877 55.377 35.3272C55.3214 34.9413 55.4197 34.4182 55.0097 34.1974C54.2398 33.6909 53.2899 34.1139 52.6592 34.6445C52.4124 34.4275 52.1657 34.2104 51.919 33.9933C52.5367 33.4498 53.2788 33.0045 54.1211 32.9526C54.8427 32.9099 55.6924 32.9823 56.1989 33.5667ZM46.9044 30.8989C47.8876 30.923 48.8709 30.8785 49.8541 30.9156C50.7391 30.9564 51.611 31.5946 51.739 32.5073C51.9728 33.9785 50.7316 35.3625 49.3143 35.5795C48.6427 35.6723 47.9637 35.6463 47.2884 35.6574C47.1214 36.6407 46.9359 37.6202 46.7819 38.6072L45.5278 38.622C45.9898 36.047 46.4387 33.472 46.9044 30.8989ZM52.8948 36.2864C52.4236 36.585 52.2455 37.4032 52.8336 37.6815C53.8558 38.1267 54.9114 37.2752 55.2026 36.3105C54.481 36.0211 53.5886 35.8244 52.8948 36.2864ZM47.934 32.0862C47.7875 32.8784 47.6502 33.6743 47.4999 34.4683C48.3607 34.4126 49.3978 34.7039 50.0842 34.0249C50.5962 33.5574 50.6982 32.5073 49.9803 32.1882C49.3198 31.9897 48.613 32.1122 47.934 32.0862ZM22.2935 32.8283C23.7312 32.409 25.3582 33.3793 25.7831 34.7911C25.9872 35.5907 25.9 36.4941 25.4176 37.1806C24.4418 38.7204 21.9132 38.8558 20.7704 37.4403C20.032 36.5721 19.8372 35.2419 20.4216 34.2401C20.8149 33.5351 21.5273 33.0509 22.2935 32.8283ZM24.7739 36.1862C25.31 34.8987 23.9186 33.4628 22.607 33.8319C21.3084 34.0008 20.6015 35.7224 21.505 36.7093C22.3399 37.8707 24.3379 37.5368 24.7739 36.1862ZM27.8646 33.4628C28.7236 32.7708 29.9554 32.4739 30.9702 33.0027C32.4914 33.613 33.1927 35.6315 32.3041 37.0303C31.434 38.6146 29.1428 38.815 27.7867 37.7501C27.7848 38.8447 27.846 39.9429 27.7718 41.0356C27.7681 41.4735 27.2004 41.4289 26.911 41.3121C26.7823 41.1242 26.7609 40.903 26.7579 40.6802L26.7575 40.4141L26.7533 40.2843C26.7756 37.9894 26.7422 35.6964 26.7682 33.4034C26.7033 33.0657 27.0595 32.6539 27.4045 32.7986C27.744 32.8209 27.7403 33.2346 27.8646 33.4628ZM31.4525 34.7632C31.011 33.8728 29.8626 33.5815 28.9814 33.9525C28.1781 34.3106 27.6327 35.305 27.9926 36.1565C28.3117 37.1546 29.5473 37.7334 30.5064 37.2752C31.4637 36.9208 32.0425 35.6612 31.4525 34.7632ZM34.7715 33.1919C35.9829 32.3274 37.9772 32.7392 38.5765 34.151C38.7842 34.6612 38.9197 35.2586 38.7193 35.7929C38.5022 35.945 38.224 35.9135 37.9754 35.9302C36.8437 35.9357 35.7102 35.9098 34.5785 35.9431C34.7733 36.4255 34.9106 37.0266 35.4393 37.2585C36.2556 37.6406 37.1943 37.4125 37.9921 37.0915C38.4651 36.8262 38.8826 37.7111 38.4169 37.9467C37.3186 38.6295 35.7937 38.7222 34.6861 38.0043C33.1816 36.88 33.2391 34.2642 34.7715 33.1919ZM37.0738 33.9525C36.6155 33.7633 36.0886 33.7596 35.6156 33.8913C35.1295 34.0267 34.9236 34.5332 34.6898 34.9265C35.725 34.9432 36.7621 34.9413 37.7991 34.9265C37.6099 34.5703 37.4708 34.1288 37.0738 33.9525ZM40.8342 33.2865C41.8546 32.4702 43.4649 32.5964 44.3702 33.524C44.8693 34.1306 45.1457 34.9822 44.9379 35.7576C44.7079 35.9598 44.3813 35.9135 44.0993 35.932L41.8731 35.9261L40.76 35.9413C40.9641 36.4496 41.1348 37.073 41.7006 37.2937C42.4816 37.6073 43.361 37.4254 44.1142 37.1138C44.6281 36.7483 45.0789 37.7167 44.5706 37.9783C43.4259 38.6443 41.8249 38.7389 40.7433 37.8985C39.4206 36.7483 39.4818 34.3866 40.8342 33.2865ZM42.5667 33.791L42.4278 33.8023C41.6746 33.7095 41.144 34.2957 40.8862 34.9302C41.9176 34.9395 42.9491 34.9413 43.9806 34.9284C43.7895 34.229 43.1773 33.7039 42.4278 33.8023L42.5667 33.791ZM57.2062 33.1307C57.6645 34.8467 58.1023 36.5721 58.5847 38.2825C58.0429 39.1804 57.466 40.0561 56.9076 40.9429C57.3287 40.9466 57.7498 40.9484 58.1709 40.954C59.8054 38.3623 61.3878 35.7391 63 33.1344C62.5529 33.1325 62.1077 33.1307 61.6624 33.1307C60.924 34.3607 60.2488 35.6278 59.4603 36.8281C59.1468 35.5981 58.8703 34.3607 58.5624 33.1307C58.1097 33.1307 57.6571 33.1307 57.2062 33.1307Z" fill="white"/>
</svg>
